<svg width="27" height="24" viewBox="0 0 27 24" fill="none" xmlns="http://www.w3.org/2000/svg">
<path d="M13.079 24L11.1826 22.2997C8.98093 20.3161 7.16076 18.6049 5.72207 17.1662C4.28338 15.7275 3.13896 14.436 2.28883 13.2916C1.43869 12.1471 0.844687 11.0954 0.506812 10.1362C0.168937 9.17711 0 8.19618 0 7.19346C0 5.14441 0.686649 3.43324 2.05995 2.05995C3.43324 0.686648 5.14441 0 7.19346 0C8.32698 0 9.40599 0.239782 10.4305 0.719346C11.455 1.19891 12.3379 1.87466 13.079 2.74659C13.8202 1.87466 14.703 1.19891 15.7275 0.719346C16.752 0.239782 17.8311 0 18.9646 0C21.0136 0 22.7248 0.686648 24.0981 2.05995C25.4714 3.43324 26.158 5.14441 26.158 7.19346C26.158 8.19618 25.9891 9.17711 25.6512 10.1362C25.3134 11.0954 24.7193 12.1471 23.8692 13.2916C23.0191 14.436 21.8747 15.7275 20.436 17.1662C18.9973 18.6049 17.1771 20.3161 14.9755 22.2997L13.079 24ZM13.079 20.4687C15.1717 18.594 16.8937 16.9864 18.2452 15.6458C19.5967 14.3052 20.6649 13.139 21.4496 12.1471C22.2343 11.1553 22.7793 10.2725 23.0845 9.49864C23.3896 8.7248 23.5422 7.9564 23.5422 7.19346C23.5422 5.88556 23.1063 4.79564 22.2343 3.92371C21.3624 3.05177 20.2725 2.6158 18.9646 2.6158C17.9401 2.6158 16.9918 2.90463 16.1199 3.48229C15.248 4.05995 14.6485 4.79564 14.3215 5.68937H11.8365C11.5095 4.79564 10.9101 4.05995 10.0381 3.48229C9.16621 2.90463 8.21798 2.6158 7.19346 2.6158C5.88556 2.6158 4.79564 3.05177 3.92371 3.92371C3.05177 4.79564 2.6158 5.88556 2.6158 7.19346C2.6158 7.9564 2.76839 8.7248 3.07357 9.49864C3.37875 10.2725 3.92371 11.1553 4.70845 12.1471C5.49319 13.139 6.56131 14.3052 7.91281 15.6458C9.26431 16.9864 10.9864 18.594 13.079 20.4687Z" fill="#1C1B1F"/>
<mask id="mask0_1_69" style="mask-type:alpha" maskUnits="userSpaceOnUse" x="6" y="3" width="14" height="15">
<rect x="6.19252" y="3.65608" width="13.7165" height="13.7165" fill="#D9D9D9"/>
</mask>
<g mask="url(#mask0_1_69)">
<path d="M8.69294 15.658L7.89281 14.8579L13.7509 8.99979C13.5794 8.59972 13.5556 8.14727 13.6794 7.64243C13.8033 7.13759 14.0748 6.68513 14.4939 6.28507C14.9987 5.78023 15.5607 5.48494 16.1798 5.39921C16.799 5.31348 17.3038 5.46589 17.6944 5.85643C18.0849 6.24697 18.2373 6.75181 18.1516 7.37096C18.0659 7.9901 17.7706 8.5521 17.2657 9.05694C16.8657 9.47606 16.4132 9.74753 15.9084 9.87136C15.4035 9.99519 14.9511 9.97137 14.551 9.79992L13.8366 10.5143L18.1802 14.8579L17.38 15.658L13.0365 11.343L8.69294 15.658ZM10.3789 10.7715L8.66436 9.05694C8.14999 8.54257 7.89281 7.92819 7.89281 7.21379C7.89281 6.49939 8.14999 5.885 8.66436 5.37064L12.2078 8.94264L10.3789 10.7715Z" fill="#1C1B1F"/>
</g>
</svg>
